<svg width="100" height="100" viewBox="0 0 168 168" xmlns="http://www.w3.org/2000/svg">
  <rect width="168" height="168" rx="84" fill="rgb(255, 159, 10)"/>
  <path d="M83.613,29.537c-25.527,0-46.243,20.7-46.243,46.207c0,25.523,20.716,46.223,46.243,46.223
  c25.531,0,46.247-20.7,46.247-46.223C129.86,50.237,109.144,29.537,83.613,29.537z M104.796,103.83
  c-0.7,1.147-1.995,1.508-3.153,0.798c-8.635-5.304-19.486-6.497-32.124-3.812c-2.006,0.451-4.104-0.81-4.56-2.803
  c-0.451-2.004,0.811-4.105,2.803-4.56c14.357-3.145,26.583-1.769,36.055,4.102C105.217,100.954,105.5,102.69,104.796,103.83z
  M113.917,87.591c-0.89,1.447-2.805,1.893-4.247,1.01c-9.867-5.973-24.898-7.716-36.574-4.533c-2.202,0.629-4.555-0.639-5.181-2.827
  c-0.63-2.203,0.632-4.555,2.827-5.181c13.755-3.917,30.467-1.898,41.697,5.116C114.524,84.46,114.808,86.136,113.917,87.591z
  M114.961,71.513c-11.844-7.067-31.475-7.719-44.303-4.527c-2.446,0.583-4.93-0.946-5.513-3.391c-0.585-2.446,0.945-4.929,3.391-5.513
  c14.818-3.527,36.498-2.763,50.241,5.56c2.148,1.283,2.863,4.078,1.579,6.229C118.64,71.662,117.106,72.378,114.961,71.513z" fill="white"/>
</svg>
